# xmcd
#
# Track frame offsets: 
#        150
#        2261
#        14385
#        26199
#        43979
#        50048
#        69900
#        92002
#        102289
#        127490
#        134232
#        152680
#        156244
#        168304
#        173410
#        186516
#        189857
#        192281
#        208491
#        211098
#        231650
#        242816
#        247271
#        264921
#        269661
#        289417
#        295948
#
# Disc length: 4228 seconds
#
# Revision: 1
# Processed by: cddbd v1.5.2PL0 Copyright (c) Steve Scherf et al.
# Submitted via: ExactAudioCopy v0.99pb5
#
DISCID=a710821b
DTITLE=Lucinda Williams - NY [4 Sweet Old World Live]
DYEAR=2007
DGENRE=Folk/Rock
TTITLE0="Hey everybody"
TTITLE1=Six Blocks Away
TTITLE2="You know, a little bit"
TTITLE3=Something About What Happens When We Talk
TTITLE4="Well, I tell ya"
TTITLE5=He Never Got Enough Love
TTITLE6=Sweet Old World
TTITLE7="I used to work"
TTITLE8=Little Angel, Little Brother
TTITLE9="Okay, this is a song about a poet"
TTITLE10=Piñeola
TTITLE11="Some of these songs"
TTITLE12=Lines Around Your Eyes
TTITLE13="Some of the band"
TTITLE14=Prove My Love
TTITLE15="This is a song I wrote after"
TTITLE16=Sidewalks of the City [Take 1]
TTITLE17=Sidewalks of the City [Take 2]
TTITLE18="See, this is why I haven't"
TTITLE19=Sidewalks of the City
TTITLE20="The other thing"
TTITLE21=Memphis Pearl [Take 1]
TTITLE22=Memphis Pearl
TTITLE23="This is another one"
TTITLE24=Hot Blood
TTITLE25="And now for something"
TTITLE26=Which Will
EXTD=
EXTT0=
EXTT1=
EXTT2=
EXTT3=
EXTT4=
EXTT5=
EXTT6=
EXTT7=
EXTT8=
EXTT9=
EXTT10=
EXTT11=
EXTT12=
EXTT13=
EXTT14=
EXTT15=
EXTT16=
EXTT17=
EXTT18=
EXTT19=
EXTT20=
EXTT21=
EXTT22=
EXTT23=
EXTT24=
EXTT25=
EXTT26=
PLAYORDER=
